<svg width="156" height="156" viewBox="0 0 156 156" fill="none" xmlns="http://www.w3.org/2000/svg">
<g clip-path="url(#clip0_13_31)">
<path d="M134.304 73.3082C128.718 71.3771 122.754 70.7998 116.902 71.6236L96.4083 51.1328L102.481 45.06L124.898 67.477C125.918 68.4623 127.54 68.448 128.542 67.4454C129.024 66.9634 129.298 66.3113 129.304 65.6297C129.31 64.9481 129.047 64.2914 128.574 63.8011L106.157 41.3842L112.23 35.3114L134.647 57.7283C135.667 58.7136 137.288 58.6994 138.291 57.6967C139.294 56.6938 139.308 55.0725 138.323 54.0525L115.906 31.6355L119.943 27.5981C120.233 27.3073 120.577 27.0766 120.956 26.9192C121.335 26.7617 121.742 26.6807 122.153 26.6807C122.563 26.6807 122.97 26.7617 123.349 26.9192C123.728 27.0766 124.072 27.3073 124.362 27.5981L142.56 45.7958C144.73 47.794 148.076 47.7736 150.221 45.7491C157.905 38.0446 157.905 25.5747 150.221 17.8702L138.133 5.78175C134.436 2.08446 129.422 0.00746899 124.194 0.00746899C118.965 0.00746899 113.951 2.08446 110.254 5.7815L75.1973 40.8122L55.8452 6.23639C55.3003 5.24725 54.6166 4.34121 53.8149 3.54582C49.941 -0.308378 43.9746 -1.11075 39.2204 1.58313C38.6909 1.8838 38.2837 2.3608 38.07 2.93093C37.8562 3.50107 37.8493 4.12815 38.0506 4.70282L55.8949 55.8907L4.70962 38.0512C4.13495 37.85 3.5079 37.8569 2.93779 38.0707C2.36768 38.2845 1.89068 38.6915 1.58993 39.2209C-1.11466 43.9666 -0.309739 49.935 3.55518 53.7948C4.33678 54.5945 5.22882 55.2782 6.20415 55.8251L40.8266 75.1823L5.78064 110.223C-1.90351 117.928 -1.90351 130.398 5.78064 138.102L17.8614 150.191C19.6912 152.024 21.8644 153.478 24.2568 154.47C26.6491 155.462 29.2136 155.973 31.8036 155.973C34.3935 155.973 36.958 155.462 39.3504 154.47C41.7427 153.478 43.916 152.024 45.7457 150.191C46.2535 149.686 46.6564 149.085 46.9313 148.424C47.2063 147.762 47.3478 147.053 47.3478 146.337C47.3478 145.621 47.2063 144.911 46.9313 144.25C46.6564 143.589 46.2535 142.988 45.7457 142.483L27.5998 124.337C27.309 124.047 27.0783 123.703 26.9209 123.324C26.7634 122.945 26.6824 122.538 26.6824 122.127C26.6824 121.717 26.7634 121.31 26.9209 120.931C27.0783 120.552 27.309 120.208 27.5998 119.918L31.6372 115.88L54.0542 138.297C55.0742 139.283 56.6958 139.268 57.6984 138.266C58.7013 137.263 58.7153 135.641 57.73 134.621L35.3156 112.225L41.3884 106.152L63.8054 128.569C64.8254 129.555 66.447 129.54 67.4496 128.538C67.9316 128.056 68.2051 127.404 68.211 126.722C68.2169 126.04 67.9548 125.384 67.4812 124.894L45.0643 102.477L51.1371 96.4038L71.638 116.905C70.8183 122.754 71.3865 128.713 73.2966 134.302C77.6146 147.222 87.6105 155.978 97.0655 155.978C98.6404 155.981 100.205 155.73 101.701 155.235C103.779 154.5 105.688 153.354 107.314 151.867C108.941 150.38 110.253 148.581 111.171 146.578C114.595 138.618 114.821 129.645 111.803 121.522C108.184 110.705 100.401 102.409 92.1104 100.342L87.7768 89.2495L89.1624 87.7884L100.341 92.1143C102.402 100.433 110.696 108.199 121.513 111.797C125.533 113.157 129.747 113.86 133.991 113.876C138.343 113.952 142.653 113.022 146.587 111.16C148.586 110.242 150.381 108.932 151.865 107.308C153.348 105.683 154.49 103.777 155.223 101.702C158.816 90.9002 149.624 78.4268 134.304 73.3082ZM111.091 73.165C110.254 73.4901 109.438 73.866 108.647 74.2906L90.3561 67.911L86.5086 61.0322L92.7321 54.8059L111.091 73.165ZM113.912 9.452C115.26 8.10281 116.861 7.03251 118.623 6.30227C120.385 5.57203 122.273 5.19617 124.181 5.19617C126.088 5.19617 127.977 5.57203 129.738 6.30227C131.5 7.03251 133.101 8.10281 134.449 9.452L146.538 21.5404C147.89 22.8983 148.958 24.5111 149.682 26.2852C150.406 28.0592 150.77 29.9594 150.754 31.8753C150.738 33.7913 150.341 35.685 149.588 37.4466C148.834 39.2082 147.738 40.8027 146.364 42.1376C146.295 42.1353 146.228 42.1107 146.174 42.0674L128.028 23.9139C124.78 20.6676 119.516 20.6676 116.267 23.9139L83.8777 56.3032L77.8412 45.5144L113.912 9.452ZM43.7828 5.34727C44.9144 5.10935 46.0875 5.15631 47.1965 5.48393C48.3055 5.81155 49.3158 6.40956 50.1365 7.22424C50.5943 7.67449 50.9849 8.18842 51.296 8.75015L82.9524 65.3321L62.1705 58.0868L43.7828 5.34727ZM23.9186 116.263C20.6724 119.511 20.6724 124.775 23.9186 128.024L42.0645 146.17V146.523C40.7173 147.874 39.1167 148.946 37.3546 149.677C35.5925 150.408 33.7035 150.785 31.7957 150.785C29.8878 150.785 27.9988 150.408 26.2367 149.677C24.4746 148.946 22.874 147.874 21.5268 146.523L9.4384 134.435C3.77407 128.76 3.77407 119.571 9.4384 113.897L45.5454 77.8188L56.3342 83.8525L23.9186 116.263ZM54.8132 92.7276L61.0523 86.4885L67.9259 90.3307L74.2977 108.643C73.8764 109.436 73.5023 110.253 73.1772 111.089L54.8132 92.7276ZM87.7799 103.529C87.9445 103.955 88.218 104.329 88.573 104.615C88.928 104.901 89.3521 105.089 89.8025 105.159C96.7774 106.251 103.635 113.478 106.872 123.16C109.459 129.972 109.333 137.518 106.521 144.241C105.902 145.629 105.012 146.879 103.903 147.917C102.793 148.956 101.487 149.762 100.061 150.287C92.2798 152.887 82.2839 144.792 78.2233 132.656C75.4624 124.371 75.8836 115.803 79.3413 110.299C79.5494 109.97 79.6808 109.598 79.7258 109.211C79.7708 108.824 79.7282 108.432 79.6013 108.063L74.537 93.505C77.5527 94.2941 80.7524 93.9596 83.5397 92.5639L87.7799 103.529ZM150.289 100.062C149.766 101.484 148.962 102.786 147.927 103.893C146.891 104.999 145.645 105.887 144.26 106.503C137.535 109.318 129.986 109.442 123.172 106.849C113.493 103.628 106.274 96.7727 105.185 89.7876C105.115 89.3359 104.927 88.9106 104.64 88.5546C104.354 88.1986 103.978 87.9245 103.552 87.7598L91.0399 82.9269C90.1144 82.5722 89.1057 82.4939 88.1366 82.7016C87.1674 82.9092 86.2794 83.3939 85.5804 84.0967L83.1057 86.5612C81.9394 87.7144 80.4313 88.4591 78.8067 88.684C77.1821 88.9089 75.5283 88.602 74.0926 87.809C74.0926 87.809 7.66909 50.5685 7.22874 50.111C6.41213 49.2972 5.81266 48.2915 5.4852 47.1861C5.15774 46.0806 5.11274 44.9107 5.35433 43.7834L108.068 79.5965C108.438 79.7226 108.831 79.7647 109.219 79.7198C109.607 79.6748 109.98 79.5439 110.311 79.3365C115.815 75.8686 124.373 75.4369 132.651 78.2344C145.004 82.3654 152.917 92.1556 150.289 100.062Z" fill="black"/>
<path d="M131.127 82.8904C126.097 80.9723 120.529 81.015 115.529 83.01C114.641 83.3999 113.84 83.9632 113.173 84.6668C112.506 85.3703 111.987 86.2 111.645 87.1071C109.908 92.3403 115.89 99.2555 124.708 102.209C127.374 103.112 130.168 103.583 132.983 103.602C135.509 103.664 138.016 103.146 140.311 102.089C141.197 101.7 141.996 101.139 142.662 100.438C143.328 99.7363 143.847 98.9094 144.19 98.0051C145.927 92.759 139.945 85.8437 131.127 82.8904ZM139.253 96.3542C138.97 96.8535 138.52 97.2372 137.982 97.4382C134.218 98.8307 130.07 98.7733 126.346 97.277C119.285 94.914 116.088 90.1903 116.569 88.7448C116.852 88.2455 117.302 87.8618 117.84 87.6608C119.428 86.9647 121.151 86.6317 122.883 86.6859C125.125 86.7072 127.349 87.0908 129.468 87.822C136.539 90.1852 139.734 94.9086 139.253 96.3542ZM83.0197 115.514C81.0248 120.514 80.9821 126.082 82.9 131.112C85.4998 138.898 91.2059 144.472 96.1064 144.472C96.7503 144.475 97.3904 144.373 98.0015 144.17C98.9077 143.829 99.7366 143.31 100.44 142.644C101.143 141.978 101.706 141.178 102.096 140.292C104.091 135.291 104.134 129.724 102.216 124.693C99.2651 115.873 92.3213 109.899 87.1168 111.633C86.2098 111.974 85.3802 112.494 84.6767 113.16C83.9731 113.826 83.4097 114.627 83.0197 115.514ZM87.6706 117.84C87.8726 117.303 88.2561 116.853 88.7547 116.569C88.8589 116.536 88.9678 116.52 89.0771 116.522C90.8059 116.522 95.0772 119.746 97.2869 126.347C98.7785 130.069 98.8351 134.213 97.4456 137.975C97.2435 138.511 96.861 138.959 96.3641 139.244C94.942 139.73 90.1977 136.532 87.8319 129.469C86.3404 125.746 86.283 121.603 87.6706 117.84ZM72.062 75.7336C71.6983 76.0971 71.4506 76.5604 71.3502 77.0647C71.2498 77.569 71.3012 78.0918 71.498 78.5669C71.6947 79.042 72.0279 79.4481 72.4555 79.7338C72.883 80.0195 73.3857 80.172 73.8999 80.172C74.4141 80.172 74.9168 80.0195 75.3444 79.7338C75.7719 79.4481 76.1051 79.042 76.3019 78.5669C76.4986 78.0918 76.55 77.569 76.4496 77.0647C76.3492 76.5604 76.1015 76.0971 75.7379 75.7336C74.7227 74.7187 73.0771 74.7187 72.062 75.7336Z" fill="black"/>
</g>
<defs>
<clipPath id="clip0_13_31">
<rect width="156" height="156" fill="white"/>
</clipPath>
</defs>
</svg>
