<svg width="156" height="157" viewBox="0 0 156 157" fill="none" xmlns="http://www.w3.org/2000/svg">
<g clip-path="url(#clip0_13_11)">
<path d="M33.8 130.452C31.7313 130.452 29.7473 131.274 28.2846 132.737C26.8218 134.2 26 136.183 26 138.252C26 140.321 26.8218 142.305 28.2846 143.768C29.7473 145.23 31.7313 146.052 33.8 146.052C35.8687 146.052 37.8527 145.23 39.3154 143.768C40.7782 142.305 41.6 140.321 41.6 138.252C41.6 136.183 40.7782 134.2 39.3154 132.737C37.8527 131.274 35.8687 130.452 33.8 130.452ZM33.8 140.852C33.1104 140.852 32.4491 140.578 31.9615 140.091C31.4739 139.603 31.2 138.942 31.2 138.252C31.2 137.563 31.4739 136.901 31.9615 136.414C32.4491 135.926 33.1104 135.652 33.8 135.652C34.4896 135.652 35.1509 135.926 35.6385 136.414C36.1261 136.901 36.4 137.563 36.4 138.252C36.4 138.942 36.1261 139.603 35.6385 140.091C35.1509 140.578 34.4896 140.852 33.8 140.852ZM124.8 130.452C122.731 130.452 120.747 131.274 119.285 132.737C117.822 134.2 117 136.183 117 138.252C117 140.321 117.822 142.305 119.285 143.768C120.747 145.23 122.731 146.052 124.8 146.052C126.869 146.052 128.853 145.23 130.315 143.768C131.778 142.305 132.6 140.321 132.6 138.252C132.6 136.183 131.778 134.2 130.315 132.737C128.853 131.274 126.869 130.452 124.8 130.452ZM124.8 140.852C124.11 140.852 123.449 140.578 122.962 140.091C122.474 139.603 122.2 138.942 122.2 138.252C122.2 137.563 122.474 136.901 122.962 136.414C123.449 135.926 124.11 135.652 124.8 135.652C125.49 135.652 126.151 135.926 126.638 136.414C127.126 136.901 127.4 137.563 127.4 138.252C127.4 138.942 127.126 139.603 126.638 140.091C126.151 140.578 125.49 140.852 124.8 140.852Z" fill="black"/>
<path d="M5.2 140.852H15.808C16.4297 145.181 18.5911 149.14 21.8958 152.004C25.2005 154.868 29.4269 156.445 33.8 156.445C38.1731 156.445 42.3995 154.868 45.7042 152.004C49.0089 149.14 51.1703 145.181 51.792 140.852H106.808C107.43 145.181 109.591 149.14 112.896 152.004C116.2 154.868 120.427 156.445 124.8 156.445C129.173 156.445 133.4 154.868 136.704 152.004C140.009 149.14 142.17 145.181 142.792 140.852H150.8C152.179 140.852 153.502 140.304 154.477 139.329C155.452 138.354 156 137.031 156 135.652V130.452C155.997 129.543 155.756 128.651 155.299 127.866C154.843 127.08 154.188 126.428 153.4 125.975V111.55C153.4 109.671 152.721 107.856 151.489 106.437C150.258 105.018 148.555 104.092 146.695 103.828L115.786 99.4238L111.4 93.9404C121.723 93.4488 131.592 89.5521 139.467 82.859C147.341 76.1659 152.777 67.0533 154.926 56.9444C157.075 46.8355 155.815 36.2997 151.344 26.9823C146.873 17.6649 139.441 10.0908 130.211 5.44282C120.98 0.794842 110.47 -0.665226 100.322 1.29066C90.1743 3.24654 80.9598 8.50823 74.118 16.2539C67.2762 23.9996 63.1923 33.7932 62.5042 44.105C61.8161 54.4167 64.5624 64.6661 70.3144 73.2522H49.608C47.5187 73.2503 45.4601 73.7545 43.6082 74.7216C41.7563 75.6888 40.1662 77.0901 38.974 78.8058L24.5336 99.416L9.4146 101.301C7.53293 101.55 5.80541 102.473 4.55232 103.899C3.29924 105.324 2.6056 107.156 2.6 109.054V125.252C2.6156 125.476 2.6598 125.694 2.7326 125.905C1.90925 126.346 1.22054 127.001 0.739469 127.802C0.258395 128.602 0.00287796 129.518 0 130.452L0 135.652C0 137.031 0.547856 138.354 1.52304 139.329C2.49823 140.304 3.82087 140.852 5.2 140.852ZM5.2 130.452H17.381C16.6016 132.097 16.0757 133.85 15.821 135.652H5.2V130.452ZM33.8 151.252C30.3522 151.252 27.0456 149.883 24.6076 147.445C22.1696 145.007 20.8 141.7 20.8 138.252C20.8 134.804 22.1696 131.498 24.6076 129.06C27.0456 126.622 30.3522 125.252 33.8 125.252C37.2478 125.252 40.5544 126.622 42.9924 129.06C45.4304 131.498 46.8 134.804 46.8 138.252C46.8 141.7 45.4304 145.007 42.9924 147.445C40.5544 149.883 37.2478 151.252 33.8 151.252ZM114.213 104.452L135.2 107.442V112.252C135.2 114.321 136.022 116.305 137.485 117.768C138.947 119.23 140.931 120.052 143 120.052H148.2V125.252H137.511C134.12 121.92 129.555 120.053 124.8 120.053C120.045 120.053 115.48 121.92 112.089 125.252H67.6V104.452H114.213ZM108.381 130.452C107.597 132.096 107.067 133.849 106.808 135.652H67.6V130.452H108.381ZM62.4 135.652H51.792C51.5332 133.849 51.0029 132.096 50.219 130.452H62.4V135.652ZM124.8 151.252C121.352 151.252 118.046 149.883 115.608 147.445C113.17 145.007 111.8 141.7 111.8 138.252C111.8 134.804 113.17 131.498 115.608 129.06C118.046 126.622 121.352 125.252 124.8 125.252C128.248 125.252 131.554 126.622 133.992 129.06C136.43 131.498 137.8 134.804 137.8 138.252C137.8 141.7 136.43 145.007 133.992 147.445C131.554 149.883 128.248 151.252 124.8 151.252ZM150.8 135.652H142.792C142.533 133.849 142.003 132.096 141.219 130.452H150.8V135.652ZM148.2 111.55V114.852H143C142.31 114.852 141.649 114.578 141.162 114.091C140.674 113.603 140.4 112.942 140.4 112.252V108.183L145.941 108.963C146.567 109.046 147.142 109.354 147.558 109.831C147.974 110.307 148.202 110.918 148.2 111.55ZM109.2 5.65221C132.176 5.65221 150.8 24.276 150.8 47.2522C150.8 70.2284 132.176 88.8522 109.2 88.8522C86.2238 88.8522 67.6 70.2284 67.6 47.2522C67.626 24.289 86.2368 5.67821 109.2 5.65221ZM104.645 93.8208L108.989 99.2522H67.6V78.4522H74.4172C82.2092 87.1845 92.9982 92.6699 104.645 93.8208ZM43.2432 81.7776C43.9564 80.7502 44.908 79.911 46.0165 79.3318C47.125 78.7527 48.3573 78.4508 49.608 78.4522H62.4V99.2522H30.9972L43.2432 81.7776ZM7.8 109.054C7.8 107.741 8.7724 106.631 10.0724 106.454L26.1586 104.452H62.4V125.252H46.5114C43.1196 121.92 38.5549 120.053 33.8 120.053C29.0451 120.053 24.4804 121.92 21.0886 125.252H7.8V109.054Z" fill="black"/>
<path d="M75.4 114.852H80.6C81.2896 114.852 81.9509 114.578 82.4385 114.091C82.9261 113.603 83.2 112.942 83.2 112.252C83.2 111.563 82.9261 110.901 82.4385 110.414C81.9509 109.926 81.2896 109.652 80.6 109.652H75.4C74.7104 109.652 74.0491 109.926 73.5615 110.414C73.0739 110.901 72.8 111.563 72.8 112.252C72.8 112.942 73.0739 113.603 73.5615 114.091C74.0491 114.578 74.7104 114.852 75.4 114.852ZM81.9 67.124C83.5588 67.7532 85.436 67.345 86.684 66.084L88.764 64.004C89.2274 63.4999 89.8585 63.1818 90.5394 63.1091C91.2203 63.0364 91.9043 63.214 92.4638 63.6088C92.7401 63.8443 92.9652 64.1341 93.1249 64.4601C93.2847 64.7862 93.3758 65.1416 93.3926 65.5043C93.4095 65.867 93.3516 66.2293 93.2227 66.5687C93.0938 66.9082 92.8965 67.2175 92.6432 67.4776L90.3448 69.776C89.7275 70.3886 89.3008 71.1669 89.1162 72.0167C88.9317 72.8666 88.9972 73.7517 89.3048 74.5652C89.5885 75.3633 90.0967 76.0624 90.7683 76.5785C91.4398 77.0947 92.2462 77.4058 93.0904 77.4746C95.5923 77.7024 98.1123 77.3226 100.436 76.3675C102.76 75.4124 104.818 73.9102 106.437 71.9888C108.055 70.0673 109.186 67.7833 109.732 65.3312C110.278 62.879 110.224 60.3312 109.574 57.9044L119.86 47.6318C122.284 48.2809 124.83 48.3354 127.28 47.7908C129.73 47.2461 132.012 46.1184 133.933 44.5032C135.854 42.8881 137.358 40.8333 138.315 38.5132C139.272 36.1931 139.656 33.6763 139.433 31.1764C139.366 30.3274 139.055 29.5158 138.538 28.8391C138.021 28.1625 137.32 27.6496 136.518 27.3622C135.705 27.0539 134.82 26.9881 133.97 27.1727C133.12 27.3572 132.341 27.7843 131.729 28.4022L129.431 30.698C129.172 30.9503 128.864 31.1469 128.526 31.276C128.188 31.405 127.827 31.4636 127.466 31.4483C127.105 31.433 126.75 31.344 126.425 31.1868C126.099 31.0296 125.809 30.8075 125.572 30.5342C125.174 29.9746 124.993 29.289 125.063 28.6057C125.134 27.9224 125.45 27.2881 125.954 26.8214L128.034 24.7414C128.645 24.1274 129.067 23.3518 129.252 22.5059C129.437 21.66 129.376 20.7789 129.078 19.9662C128.779 19.1536 128.254 18.4431 127.566 17.9183C126.877 17.3935 126.053 17.0762 125.19 17.0038C122.696 16.7965 120.189 17.1923 117.88 18.1577C115.571 19.1231 113.529 20.6297 111.924 22.5505C110.32 24.4713 109.202 26.7498 108.663 29.1937C108.125 31.6376 108.182 34.1751 108.831 36.5922L98.5348 46.8882C96.1188 46.2411 93.5825 46.1844 91.14 46.7229C88.6975 47.2614 86.4203 48.3794 84.5003 49.9825C82.5804 51.5855 81.0741 53.6268 80.1084 55.934C79.1427 58.2412 78.746 60.7469 78.9516 63.2396C79.0816 65.0024 80.2386 66.5234 81.9 67.124ZM87.126 54.6102C88.5632 53.18 90.3845 52.1977 92.369 51.7823C94.3535 51.367 96.4159 51.5365 98.306 52.2702C98.776 52.4519 99.2887 52.493 99.7816 52.3887C100.275 52.2844 100.727 52.0391 101.083 51.6826L113.62 39.1454C113.976 38.7893 114.222 38.3372 114.326 37.8442C114.43 37.3513 114.389 36.8386 114.208 36.3686C113.607 34.8425 113.376 33.1959 113.533 31.5634C113.69 29.9309 114.231 28.3588 115.112 26.9753C115.993 25.5918 117.188 24.4362 118.601 23.6029C120.013 22.7696 121.603 22.2821 123.24 22.1804L122.273 23.1476C120.845 24.5354 119.986 26.4049 119.861 28.3918C119.737 30.3787 120.356 32.3409 121.599 33.896C122.3 34.7186 123.163 35.3876 124.135 35.8613C125.106 36.3349 126.165 36.6029 127.245 36.6486C128.324 36.6942 129.402 36.5165 130.41 36.1265C131.417 35.7365 132.334 35.1427 133.102 34.3822L134.274 33.2122C134.171 34.8449 133.684 36.4301 132.852 37.8391C132.021 39.248 130.869 40.441 129.49 41.321C128.111 42.2011 126.543 42.7434 124.915 42.9038C123.287 43.0643 121.644 42.8384 120.12 42.2446C119.648 42.0567 119.131 42.0112 118.633 42.1137C118.136 42.2163 117.679 42.4625 117.32 42.8218L104.78 55.3616C104.421 55.7209 104.175 56.1776 104.072 56.6752C103.969 57.1729 104.015 57.6897 104.203 58.1618C104.798 59.6874 105.025 61.332 104.865 62.9618C104.705 64.5917 104.162 66.1606 103.28 67.5409C102.399 68.9213 101.204 70.0739 99.7931 70.9051C98.382 71.7363 96.7945 72.2224 95.16 72.324L96.3248 71.1566C97.0883 70.3891 97.6846 69.4718 98.076 68.4624C98.4674 67.4531 98.6455 66.3736 98.5991 65.292C98.5527 64.2104 98.2828 63.1502 97.8063 62.1781C97.3299 61.2059 96.6572 60.3431 95.8308 59.6438C94.2754 58.4045 92.3146 57.7881 90.3299 57.9145C88.3452 58.0409 86.4784 58.901 85.0928 60.3276L84.1204 61.2974C84.2801 58.776 85.3522 56.3989 87.1364 54.6102H87.126Z" fill="black"/>
</g>
<defs>
<clipPath id="clip0_13_11">
<rect width="156" height="156" fill="white" transform="translate(0 0.452148)"/>
</clipPath>
</defs>
</svg>
