<svg width="156" height="156" viewBox="0 0 156 156" fill="none" xmlns="http://www.w3.org/2000/svg">
<g clip-path="url(#clip0_13_21)">
<path d="M13 62.3999C13.3422 62.4019 13.6814 62.3363 13.9982 62.207C14.3149 62.0776 14.6031 61.8869 14.846 61.6459L25.246 51.2459C25.4884 51.0035 25.6807 50.7157 25.8119 50.399C25.9431 50.0823 26.0106 49.7428 26.0106 49.3999C26.0106 49.0571 25.9431 48.7176 25.8119 48.4009C25.6807 48.0842 25.4884 47.7964 25.246 47.5539C25.0036 47.3115 24.7158 47.1192 24.3991 46.988C24.0823 46.8568 23.7428 46.7893 23.4 46.7893C23.0572 46.7893 22.7177 46.8568 22.401 46.988C22.0842 47.1192 21.7964 47.3115 21.554 47.5539L11.154 57.9539C10.7873 58.3176 10.5373 58.7822 10.4357 59.2886C10.3341 59.7949 10.3856 60.32 10.5836 60.797C10.7817 61.274 11.1173 61.6811 11.5476 61.9666C11.978 62.2521 12.4836 62.4029 13 62.3999ZM13 77.9999C13.3422 78.0019 13.6814 77.9363 13.9982 77.807C14.3149 77.6776 14.6031 77.4869 14.846 77.2459L40.846 51.2459C41.0884 51.0035 41.2807 50.7157 41.4119 50.399C41.5431 50.0823 41.6106 49.7428 41.6106 49.3999C41.6106 49.0571 41.5431 48.7176 41.4119 48.4009C41.2807 48.0842 41.0884 47.7964 40.846 47.5539C40.6036 47.3115 40.3158 47.1192 39.9991 46.988C39.6823 46.8568 39.3428 46.7893 39 46.7893C38.6572 46.7893 38.3177 46.8568 38.001 46.988C37.6842 47.1192 37.3964 47.3115 37.154 47.5539L11.154 73.5539C10.7873 73.9176 10.5373 74.3822 10.4357 74.8886C10.3341 75.3949 10.3856 75.92 10.5836 76.397C10.7817 76.874 11.1173 77.2811 11.5476 77.5666C11.978 77.8521 12.4836 78.0029 13 77.9999Z" fill="black"/>
<path d="M148.2 0H80.6C78.5313 0 76.5473 0.821783 75.0846 2.28457C73.6218 3.74735 72.8 5.73131 72.8 7.8V36.4H13C9.55219 36.4 6.24558 37.7696 3.80761 40.2076C1.36964 42.6456 0 45.9522 0 49.4L0 117C0 120.448 1.36964 123.754 3.80761 126.192C6.24558 128.63 9.55219 130 13 130H41.6V140.4H33.8C31.7313 140.4 29.7473 141.222 28.2846 142.685C26.8218 144.147 26 146.131 26 148.2C26 150.269 26.8218 152.253 28.2846 153.715C29.7473 155.178 31.7313 156 33.8 156H148.2C150.269 156 152.253 155.178 153.715 153.715C155.178 152.253 156 150.269 156 148.2V7.8C156 5.73131 155.178 3.74735 153.715 2.28457C152.253 0.821783 150.269 0 148.2 0ZM13 41.6H106.6C108.669 41.6 110.653 42.4218 112.115 43.8846C113.578 45.3473 114.4 47.3313 114.4 49.4V111.8H5.2V49.4C5.2 47.3313 6.02178 45.3473 7.48457 43.8846C8.94735 42.4218 10.9313 41.6 13 41.6ZM5.2 117H114.4C114.4 119.069 113.578 121.053 112.115 122.515C110.653 123.978 108.669 124.8 106.6 124.8H13C10.9313 124.8 8.94735 123.978 7.48457 122.515C6.02178 121.053 5.2 119.069 5.2 117ZM46.8 130H72.8V140.4H46.8V130ZM80.6 150.8H33.8C33.1104 150.8 32.4491 150.526 31.9615 150.038C31.4739 149.551 31.2 148.89 31.2 148.2C31.2 147.51 31.4739 146.849 31.9615 146.362C32.4491 145.874 33.1104 145.6 33.8 145.6H85.8C86.4896 145.6 87.1509 145.874 87.6385 146.362C88.1261 146.849 88.4 147.51 88.4 148.2C88.4 148.89 88.1261 149.551 87.6385 150.038C87.1509 150.526 86.4896 150.8 85.8 150.8H80.6ZM150.8 148.2C150.8 148.89 150.526 149.551 150.038 150.038C149.551 150.526 148.89 150.8 148.2 150.8H93.132C93.5473 149.625 93.6752 148.368 93.5049 147.134C93.3346 145.9 92.871 144.724 92.1531 143.706C91.4352 142.687 90.4837 141.856 89.3783 141.281C88.273 140.705 87.046 140.403 85.8 140.4H78V130H106.6C110.048 130 113.354 128.63 115.792 126.192C118.23 123.754 119.6 120.448 119.6 117V49.4C119.6 45.9522 118.23 42.6456 115.792 40.2076C113.354 37.7696 110.048 36.4 106.6 36.4H78V7.8C78 7.11044 78.2739 6.44912 78.7615 5.96152C79.2491 5.47393 79.9104 5.2 80.6 5.2H148.2C148.89 5.2 149.551 5.47393 150.038 5.96152C150.526 6.44912 150.8 7.11044 150.8 7.8V148.2Z" fill="black"/>
<path d="M140.4 13H88.4C87.0209 13 85.6982 13.5479 84.7231 14.523C83.7479 15.4982 83.2 16.8209 83.2 18.2V23.4C83.2 24.7791 83.7479 26.1018 84.7231 27.077C85.6982 28.0521 87.0209 28.6 88.4 28.6H140.4C141.779 28.6 143.102 28.0521 144.077 27.077C145.052 26.1018 145.6 24.7791 145.6 23.4V18.2C145.6 16.8209 145.052 15.4982 144.077 14.523C143.102 13.5479 141.779 13 140.4 13ZM88.4 23.4V18.2H140.4V23.4H88.4ZM135.2 52C137.269 52 139.253 51.1782 140.715 49.7154C142.178 48.2527 143 46.2687 143 44.2C143 42.1313 142.178 40.1474 140.715 38.6846C139.253 37.2218 137.269 36.4 135.2 36.4C133.131 36.4 131.147 37.2218 129.685 38.6846C128.222 40.1474 127.4 42.1313 127.4 44.2C127.4 46.2687 128.222 48.2527 129.685 49.7154C131.147 51.1782 133.131 52 135.2 52ZM135.2 41.6C135.89 41.6 136.551 41.8739 137.038 42.3615C137.526 42.8491 137.8 43.5104 137.8 44.2C137.8 44.8896 137.526 45.5509 137.038 46.0385C136.551 46.5261 135.89 46.8 135.2 46.8C134.51 46.8 133.849 46.5261 133.362 46.0385C132.874 45.5509 132.6 44.8896 132.6 44.2C132.6 43.5104 132.874 42.8491 133.362 42.3615C133.849 41.8739 134.51 41.6 135.2 41.6ZM143 65C143 62.9313 142.178 60.9474 140.715 59.4846C139.253 58.0218 137.269 57.2 135.2 57.2C133.131 57.2 131.147 58.0218 129.685 59.4846C128.222 60.9474 127.4 62.9313 127.4 65C127.4 67.0687 128.222 69.0527 129.685 70.5154C131.147 71.9782 133.131 72.8 135.2 72.8C137.269 72.8 139.253 71.9782 140.715 70.5154C142.178 69.0527 143 67.0687 143 65ZM135.2 67.6C134.51 67.6 133.849 67.3261 133.362 66.8385C132.874 66.3509 132.6 65.6896 132.6 65C132.6 64.3104 132.874 63.6491 133.362 63.1615C133.849 62.6739 134.51 62.4 135.2 62.4C135.89 62.4 136.551 62.6739 137.038 63.1615C137.526 63.6491 137.8 64.3104 137.8 65C137.8 65.6896 137.526 66.3509 137.038 66.8385C136.551 67.3261 135.89 67.6 135.2 67.6ZM101.4 135.2C100.71 135.2 100.049 135.474 99.5615 135.962C99.0739 136.449 98.8 137.11 98.8 137.8V143C98.8 143.69 99.0739 144.351 99.5615 144.838C100.049 145.326 100.71 145.6 101.4 145.6C102.09 145.6 102.751 145.326 103.238 144.838C103.726 144.351 104 143.69 104 143V137.8C104 137.11 103.726 136.449 103.238 135.962C102.751 135.474 102.09 135.2 101.4 135.2ZM111.8 135.2C111.11 135.2 110.449 135.474 109.962 135.962C109.474 136.449 109.2 137.11 109.2 137.8V143C109.2 143.69 109.474 144.351 109.962 144.838C110.449 145.326 111.11 145.6 111.8 145.6C112.49 145.6 113.151 145.326 113.638 144.838C114.126 144.351 114.4 143.69 114.4 143V137.8C114.4 137.11 114.126 136.449 113.638 135.962C113.151 135.474 112.49 135.2 111.8 135.2ZM122.2 135.2C121.51 135.2 120.849 135.474 120.362 135.962C119.874 136.449 119.6 137.11 119.6 137.8V143C119.6 143.69 119.874 144.351 120.362 144.838C120.849 145.326 121.51 145.6 122.2 145.6C122.89 145.6 123.551 145.326 124.038 144.838C124.526 144.351 124.8 143.69 124.8 143V137.8C124.8 137.11 124.526 136.449 124.038 135.962C123.551 135.474 122.89 135.2 122.2 135.2ZM132.6 135.2C131.91 135.2 131.249 135.474 130.762 135.962C130.274 136.449 130 137.11 130 137.8V143C130 143.69 130.274 144.351 130.762 144.838C131.249 145.326 131.91 145.6 132.6 145.6C133.29 145.6 133.951 145.326 134.438 144.838C134.926 144.351 135.2 143.69 135.2 143V137.8C135.2 137.11 134.926 136.449 134.438 135.962C133.951 135.474 133.29 135.2 132.6 135.2ZM143 135.2C142.31 135.2 141.649 135.474 141.162 135.962C140.674 136.449 140.4 137.11 140.4 137.8V143C140.4 143.69 140.674 144.351 141.162 144.838C141.649 145.326 142.31 145.6 143 145.6C143.69 145.6 144.351 145.326 144.838 144.838C145.326 144.351 145.6 143.69 145.6 143V137.8C145.6 137.11 145.326 136.449 144.838 135.962C144.351 135.474 143.69 135.2 143 135.2Z" fill="black"/>
</g>
<defs>
<clipPath id="clip0_13_21">
<rect width="156" height="156" fill="white"/>
</clipPath>
</defs>
</svg>
