<svg width="156" height="157" viewBox="0 0 156 157" fill="none" xmlns="http://www.w3.org/2000/svg">
<g clip-path="url(#clip0_13_17)">
<path d="M154.037 106.996C152.809 105.367 151.102 104.164 149.155 103.555C147.208 102.946 145.119 102.962 143.182 103.601L95.0432 119.647C94.2501 119.916 93.4184 120.053 92.5811 120.053H91.0964C94.3022 111.158 86.18 101.854 76.5191 101.854H62.9168C58.1199 101.848 53.4667 100.215 49.7172 97.2233C45.0473 93.4973 39.2526 91.4637 33.2783 91.4544H28.1203C27.5845 89.9389 26.5936 88.6259 25.283 87.6951C23.9725 86.7643 22.4064 86.2612 20.799 86.2545H7.79959C3.49214 86.2545 0 89.7467 0 94.0541V148.651C0 152.959 3.49214 156.451 7.79959 156.451H20.799C21.8897 156.447 22.9674 156.214 23.9619 155.766C24.9564 155.318 25.8453 154.666 26.5707 153.851H91.7753C95.5899 153.852 99.3315 152.805 102.591 150.822L151.312 121.163C152.453 120.475 153.439 119.559 154.21 118.473C154.981 117.387 155.52 116.154 155.794 114.851C156.067 113.547 156.069 112.201 155.799 110.897C155.53 109.592 154.994 108.358 154.226 107.269C154.17 107.174 154.107 107.083 154.037 106.996ZM20.799 151.251H7.79959C7.11009 151.251 6.44883 150.977 5.96128 150.49C5.47373 150.002 5.19983 149.341 5.19983 148.651V94.0541C5.19983 93.3646 5.47373 92.7034 5.96128 92.2158C6.44883 91.7283 7.11009 91.4544 7.79959 91.4544H20.799C21.4885 91.4544 22.1498 91.7283 22.6373 92.2158C23.1249 92.7034 23.3988 93.3646 23.3988 94.0541V148.651C23.3988 149.341 23.1249 150.002 22.6373 150.49C22.1498 150.977 21.4885 151.251 20.799 151.251ZM150.709 113.717C150.591 114.337 150.343 114.925 149.98 115.442C149.617 115.959 149.149 116.393 148.606 116.714L99.8868 146.379C97.4426 147.866 94.6363 148.652 91.7753 148.651H28.5986V96.6539H33.2783C38.0753 96.6601 42.7284 98.2924 46.4779 101.284C51.1478 105.01 56.9426 107.044 62.9168 107.053H76.514C83.4763 107.053 89.3677 114.564 85.2806 120.053H69.4681C64.3347 120.055 59.3165 121.575 55.0441 124.42L53.1463 125.694C52.8629 125.885 52.6198 126.129 52.4309 126.414C52.242 126.698 52.111 127.017 52.0453 127.352C51.9797 127.687 51.9806 128.032 52.0482 128.367C52.1158 128.701 52.2486 129.019 52.4391 129.303C52.6296 129.586 52.8741 129.829 53.1585 130.018C53.443 130.207 53.7618 130.338 54.0969 130.404C54.432 130.469 54.7768 130.468 55.1115 130.401C55.4462 130.333 55.7643 130.2 56.0477 130.01L57.9299 128.746C61.3482 126.471 65.362 125.256 69.4681 125.252H92.5808C93.9834 125.254 95.3766 125.023 96.7042 124.571L144.812 108.532C145.684 108.248 146.621 108.232 147.502 108.486C148.382 108.741 149.166 109.254 149.752 109.96C149.79 110.024 149.831 110.087 149.877 110.147C150.26 110.649 150.532 111.227 150.676 111.843C150.819 112.458 150.83 113.097 150.709 113.717ZM100.875 8.51854C87.5885 -2.18213 68.6589 -2.24063 55.307 8.37809C51.28 11.5624 47.9792 15.5697 45.6253 20.1321C43.2714 24.6946 41.9188 29.707 41.6577 34.8342C41.3019 40.8285 42.4403 46.8174 44.9707 52.263C47.5011 57.7087 51.3443 62.4407 56.1553 66.0341C60.9663 69.6275 66.5944 71.9699 72.5343 72.8509C78.4741 73.7319 84.5398 73.1239 90.1867 71.0816L94.5207 75.4183C95.3537 76.2478 96.4804 76.715 97.656 76.7183L102.523 76.7366L103.303 82.0949C103.459 83.1523 103.989 84.1188 104.796 84.819C105.604 85.5192 106.636 85.9068 107.704 85.9115L111.726 85.927L112.475 91.0879C113.039 95.0626 116.453 98.0094 120.467 97.9853C121.062 97.9853 119.638 98.0633 134.002 96.9455C135.068 96.8799 136.074 96.4289 136.832 95.6764C137.591 94.924 138.049 93.9215 138.123 92.8559L139.235 78.2785C139.302 77.6268 139.222 76.9685 139.001 76.3518C138.78 75.7351 138.424 75.1756 137.959 74.7142L112.254 49.0118C117.516 34.4692 112.941 18.1909 100.875 8.51854ZM132.978 91.8181L120.652 92.7748C119.93 92.8369 119.212 92.6192 118.646 92.1667C118.081 91.7142 117.711 91.0616 117.613 90.3438L116.77 84.5435C116.624 83.4814 116.097 82.5087 115.286 81.8066C114.476 81.1044 113.438 80.7207 112.366 80.7269L108.347 80.7113L107.567 75.3479C107.412 74.2908 106.883 73.3245 106.075 72.6249C105.268 71.9253 104.236 71.539 103.168 71.5365L97.968 71.5158L92.6981 66.2483C92.3288 65.8981 91.8681 65.6593 91.369 65.5594C90.8699 65.4596 90.3528 65.5028 89.8772 65.684C76.1179 71.3759 60.2539 66.5627 51.9766 54.1851C43.6993 41.8075 45.311 25.3081 55.8271 14.7664C66.3431 4.22481 82.8386 2.57257 95.2363 10.8194C107.634 19.0663 112.486 34.9183 106.828 48.6916C106.647 49.1664 106.603 49.6827 106.702 50.1811C106.801 50.6796 107.039 51.1401 107.387 51.5098L134.023 78.1506L132.978 91.8181Z" fill="black"/>
<path d="M99.0834 54.2449C98.8415 54.4863 98.6497 54.773 98.5188 55.0886C98.3879 55.4042 98.3205 55.7425 98.3205 56.0842C98.3205 56.4259 98.3879 56.7642 98.5188 57.0798C98.6497 57.3954 98.8415 57.6821 99.0834 57.9235L123.956 82.7939C124.447 83.2638 125.103 83.5228 125.782 83.5154C126.462 83.5079 127.112 83.2346 127.592 82.754C128.073 82.2734 128.346 81.6236 128.354 80.944C128.361 80.2643 128.102 79.6087 127.632 79.1177L102.76 54.2449C102.272 53.7576 101.611 53.4838 100.921 53.4838C100.232 53.4838 99.5709 53.7576 99.0834 54.2449ZM61.4528 20.2908C59.998 21.7451 59.0071 23.5981 58.6056 25.6156C58.204 27.633 58.4097 29.7242 59.1967 31.6247C59.9837 33.5252 61.3167 35.1497 63.027 36.2925C64.7373 37.4354 66.7481 38.0455 68.8051 38.0455C70.8621 38.0455 72.8729 37.4354 74.5832 36.2925C76.2935 35.1497 77.6265 33.5252 78.4135 31.6247C79.2005 29.7242 79.4062 27.633 79.0047 25.6156C78.6031 23.5981 77.6122 21.7451 76.1574 20.2908C72.0444 16.3593 65.5662 16.3593 61.4528 20.2908ZM72.4816 31.3193C70.4247 33.2844 67.1861 33.2844 65.1293 31.3193C64.402 30.5921 63.9068 29.6656 63.7061 28.657C63.5054 27.6483 63.6083 26.6028 64.0018 25.6526C64.3953 24.7025 65.0617 23.8903 65.9167 23.3188C66.7717 22.7474 67.777 22.4423 68.8054 22.4421C69.8339 22.4421 70.8393 22.7471 71.6944 23.3186C72.5495 23.89 73.216 24.7022 73.6095 25.6524C74.003 26.6027 74.1059 27.6483 73.9051 28.657C73.7043 29.6657 73.2089 30.5922 72.4816 31.3193ZM33.7981 36.857C33.7981 36.5156 33.7308 36.1775 33.6002 35.8621C33.4695 35.5467 33.278 35.2601 33.0366 35.0187C32.7952 34.7773 32.5086 34.5858 32.1932 34.4552C31.8778 34.3245 31.5397 34.2573 31.1983 34.2573H23.3987C22.7092 34.2573 22.048 34.5312 21.5604 35.0187C21.0729 35.5063 20.799 36.1675 20.799 36.857C20.799 37.5465 21.0729 38.2078 21.5604 38.6953C22.048 39.1829 22.7092 39.4568 23.3987 39.4568H31.1983C31.5397 39.4568 31.8778 39.3896 32.1932 39.259C32.5087 39.1283 32.7953 38.9368 33.0367 38.6954C33.2781 38.454 33.4696 38.1674 33.6002 37.8519C33.7309 37.5365 33.7981 37.1984 33.7981 36.857ZM122.194 36.857C122.194 37.5465 122.467 38.2078 122.955 38.6953C123.443 39.1829 124.104 39.4568 124.793 39.4568H132.593C133.282 39.4568 133.944 39.1829 134.431 38.6953C134.919 38.2078 135.193 37.5465 135.193 36.857C135.193 36.1675 134.919 35.5063 134.431 35.0187C133.944 34.5312 133.282 34.2573 132.593 34.2573H124.793C124.104 34.2573 123.443 34.5312 122.955 35.0187C122.467 35.5063 122.194 36.1675 122.194 36.857ZM30.7148 66.7556C31.1713 66.7566 31.6199 66.6364 32.0148 66.4074L38.7746 62.5076C39.073 62.3384 39.335 62.1117 39.5454 61.8407C39.7559 61.5697 39.9106 61.2598 40.0007 60.9287C40.0907 60.5977 40.1144 60.252 40.0703 59.9118C40.0261 59.5715 39.9151 59.2434 39.7435 58.9463C39.572 58.6491 39.3433 58.3889 39.0707 58.1806C38.7981 57.9722 38.487 57.8199 38.1552 57.7324C37.8235 57.6449 37.4777 57.6239 37.1378 57.6707C36.7979 57.7174 36.4706 57.831 36.1748 58.0049L29.4151 61.9047C28.9196 62.1909 28.5323 62.6325 28.3134 63.1612C28.0945 63.6899 28.0561 64.276 28.2042 64.8287C28.3523 65.3814 28.6786 65.8698 29.1325 66.2182C29.5864 66.5666 30.1426 66.7555 30.7148 66.7556ZM123.98 7.30693L117.22 11.2067C116.921 11.376 116.659 11.6026 116.449 11.8736C116.239 12.1446 116.084 12.4546 115.994 12.7856C115.904 13.1167 115.88 13.4623 115.924 13.8025C115.968 14.1428 116.079 14.4709 116.251 14.7681C116.422 15.0652 116.651 15.3254 116.924 15.5338C117.196 15.7421 117.507 15.8944 117.839 15.9819C118.171 16.0694 118.517 16.0904 118.857 16.0437C119.197 15.9969 119.524 15.8833 119.82 15.7095L126.579 11.8097C127.164 11.4587 127.587 10.8921 127.758 10.2319C127.929 9.57182 127.833 8.87103 127.493 8.28053C127.152 7.69003 126.592 7.25709 125.935 7.07498C125.278 6.89287 124.576 6.97617 123.98 7.30693ZM38.7691 11.2067L32.0093 7.30693C31.7135 7.13309 31.3863 7.01951 31.0464 6.97275C30.7065 6.92598 30.3607 6.94696 30.0289 7.03448C29.6972 7.12199 29.386 7.2743 29.1134 7.48263C28.8408 7.69097 28.6122 7.9512 28.4406 8.24833C28.269 8.54546 28.158 8.8736 28.1139 9.21385C28.0697 9.5541 28.0934 9.89972 28.1835 10.2308C28.2735 10.5618 28.4283 10.8718 28.6387 11.1428C28.8491 11.4138 29.1111 11.6404 29.4096 11.8097L36.1693 15.7095C36.5642 15.9387 37.0128 16.0589 37.4694 16.0577C38.0417 16.0578 38.5981 15.8691 39.0522 15.5207C39.5063 15.1723 39.8327 14.6838 39.9808 14.131C40.1289 13.5782 40.0905 12.9919 39.8714 12.4632C39.6523 11.9344 39.2648 11.4928 38.7691 11.2067Z" fill="black"/>
</g>
<defs>
<clipPath id="clip0_13_17">
<rect width="156" height="156" fill="white" transform="translate(0 0.452148)"/>
</clipPath>
</defs>
</svg>
