<svg width="156" height="157" viewBox="0 0 156 157" fill="none" xmlns="http://www.w3.org/2000/svg">
<g clip-path="url(#clip0_13_27)">
<path d="M74.7505 86.4983L70.3309 82.0474L71.155 81.2156C72.0312 80.3402 72.7263 79.3007 73.2005 78.1565C73.6748 77.0123 73.9189 75.7859 73.9189 74.5473C73.9189 73.3087 73.6748 72.0823 73.2005 70.9381C72.7263 69.7939 72.0312 68.7544 71.155 67.879L66.1868 62.8406C65.3188 61.9612 64.2839 61.2639 63.1428 60.7898C62.0018 60.3156 60.7775 60.0742 59.5418 60.0796C58.3092 60.0763 57.0883 60.3188 55.9504 60.7928C54.8126 61.2669 53.7807 61.9631 52.9151 62.8406L52.1351 63.6388L48.2356 59.6715C47.7222 59.1477 47.1094 58.7318 46.433 58.4483C45.7566 58.1648 45.0304 58.0194 44.297 58.0207C43.5635 58.0196 42.8371 58.1648 42.1604 58.4478C41.4836 58.7308 40.8702 59.146 40.3558 59.6689L35.4528 64.6085C33.3007 66.7982 33.3007 70.3089 35.4528 72.4987L39.4096 76.4919L38.5931 77.316C34.9559 81.0147 34.9559 86.9464 38.5931 90.645L43.5691 95.6677C44.4263 96.5571 45.4534 97.2654 46.5895 97.7504C47.7256 98.2354 48.9475 98.4873 50.1828 98.4911C51.419 98.4943 52.6431 98.2487 53.7825 97.7691C54.9218 97.2894 55.953 96.5854 56.8146 95.699L57.5946 94.919L62.0141 99.3724L43.1659 118.403C42.0841 119.473 41.2246 120.748 40.6371 122.152C40.0495 123.556 39.7454 125.063 39.7423 126.585C39.7391 128.107 40.037 129.615 40.6187 131.021C41.2005 132.428 42.0546 133.706 43.132 134.781C44.1893 135.875 45.4556 136.745 46.8558 137.34C48.256 137.935 49.7615 138.242 51.2828 138.244C52.8041 138.245 54.3102 137.941 55.7115 137.349C57.1129 136.756 58.3809 135.889 59.4402 134.797L78.2728 115.785L97.875 135.574C98.7558 136.462 99.8118 137.157 100.976 137.614C102.14 138.071 103.386 138.281 104.636 138.229C105.885 138.178 107.11 137.868 108.233 137.317C109.356 136.766 110.352 135.988 111.157 135.031C114.172 131.268 113.834 125.83 110.377 122.469L91.0219 102.929L98.0023 95.9097C101.273 96.5286 104.646 96.3342 107.823 95.3437C111.001 94.3532 113.887 92.5968 116.227 90.2292C118.481 87.9532 120.175 85.1834 121.174 82.1393C122.172 79.0953 122.448 75.8605 121.98 72.6912C121.845 71.6819 121.427 70.7313 120.776 69.9489C120.124 69.1666 119.264 68.5843 118.296 68.2691C117.296 67.9274 116.219 67.8744 115.19 68.1162C114.161 68.3581 113.221 68.885 112.478 69.6365L106.238 75.9358C104.923 77.2039 102.84 77.2039 101.525 75.9358C100.208 74.5948 100.208 72.4463 101.525 71.1053L107.764 64.8061C108.512 64.0496 109.033 63.0986 109.268 62.061C109.503 61.0234 109.442 59.9408 109.093 58.9359C108.785 57.9844 108.217 57.1378 107.454 56.4915C106.69 55.8452 105.761 55.425 104.772 55.2781C101.61 54.7996 98.3802 55.0764 95.346 56.0858C92.3117 57.0953 89.5596 58.8087 87.3146 61.0859C84.959 63.468 83.2167 66.3861 82.2372 69.5898C81.2578 72.7935 81.0705 76.1871 81.6914 79.4791L74.7505 86.4983ZM39.1337 68.8537C39.0959 68.8163 39.066 68.7717 39.0456 68.7227C39.0252 68.6736 39.0146 68.621 39.0146 68.5678C39.0146 68.5147 39.0252 68.462 39.0456 68.413C39.066 68.3639 39.0959 68.3194 39.1337 68.2819L44.0342 63.3424C44.0973 63.2728 44.1871 63.2331 44.2811 63.2333C44.3735 63.2323 44.462 63.27 44.5254 63.3373L48.4771 67.3462L43.0566 72.8213L39.1337 68.8537ZM50.2061 93.2916C49.6569 93.2916 49.1133 93.1806 48.6081 92.9653C48.1028 92.75 47.6463 92.4348 47.2659 92.0386L42.2769 87.0028C40.6358 85.3354 40.6358 82.6598 42.2769 80.9923L44.7597 78.4861C44.8134 78.4551 44.8655 78.4212 44.9158 78.3847C44.965 78.3355 44.9833 78.2677 45.0277 78.2159L53.9032 69.2546C53.924 69.2364 53.9499 69.2313 53.9707 69.2105C53.9915 69.1897 53.9992 69.1584 54.02 69.135L56.6198 66.5092C57.0035 66.1189 57.4611 65.8091 57.966 65.598C58.4709 65.3869 59.0128 65.2786 59.56 65.2796C60.1073 65.2783 60.6494 65.3864 61.1543 65.5976C61.6592 65.8087 62.1168 66.1187 62.5002 66.5092L67.4996 71.5552C67.8926 71.9476 68.2044 72.4137 68.4171 72.9267C68.6299 73.4397 68.7394 73.9896 68.7394 74.545C68.7394 75.1003 68.6299 75.6503 68.4171 76.1633C68.2044 76.6763 67.8926 77.1423 67.4996 77.5347L53.1204 92.0517C52.7396 92.4457 52.283 92.7586 51.7782 92.9718C51.2734 93.1849 50.7307 93.2937 50.1828 93.2918L50.2061 93.2916ZM55.7462 131.141C55.1504 131.725 54.4456 132.185 53.6719 132.496C52.8982 132.807 52.0709 132.963 51.237 132.954C50.4032 132.946 49.5792 132.773 48.8122 132.446C48.0452 132.118 47.3501 131.643 46.7666 131.048C46.1831 130.452 45.7227 129.747 45.4117 128.973C45.1006 128.2 44.945 127.372 44.9536 126.539C44.9623 125.705 45.1352 124.881 45.4623 124.114C45.7894 123.347 46.2644 122.652 46.8602 122.068L65.6902 103.056L74.6204 112.08L55.7462 131.141ZM107.208 131.661C106.862 132.057 106.44 132.379 105.966 132.607C105.493 132.836 104.978 132.966 104.452 132.99C103.927 133.015 103.402 132.933 102.909 132.749C102.417 132.565 101.966 132.284 101.585 131.921L61.2889 91.2299L66.7042 85.7704L106.683 126.129C108.222 127.579 108.442 129.948 107.195 131.656L107.208 131.661ZM87.0523 79.609C86.3589 77.0024 86.3582 74.26 87.0504 71.6532C87.7427 69.0463 89.1037 66.6655 90.9988 64.7463C92.6628 63.0511 94.7049 61.7747 96.9578 61.0218C99.2106 60.2688 101.61 60.0609 103.959 60.415C103.974 60.415 104.146 60.5996 104.159 60.6021C104.191 60.6938 104.199 60.7925 104.182 60.8882C104.165 60.984 104.123 61.0735 104.06 61.148L97.8206 67.4447C94.6641 70.8189 94.7467 76.0869 98.0075 79.3605C101.268 82.6341 106.536 82.737 109.923 79.5936L116.162 73.2943C116.225 73.2373 116.303 73.1984 116.387 73.1819C116.471 73.1654 116.557 73.1719 116.638 73.2006L116.825 73.419C117.178 75.792 116.972 78.2145 116.226 80.4944C115.479 82.7742 114.211 84.8486 112.522 86.5529C110.648 88.454 108.303 89.8234 105.727 90.5213C103.15 91.2192 100.434 91.2207 97.8571 90.5254C97.4127 90.4015 96.9433 90.3989 96.4976 90.5178C96.0518 90.6367 95.6461 90.8727 95.3224 91.2014L87.3593 99.2243L78.416 90.1953L86.3999 82.11C86.7173 81.7862 86.9445 81.3851 87.0589 80.9463C87.1734 80.5076 87.1711 80.0465 87.0523 79.609Z" fill="black"/>
<path d="M124.796 5.6458H109.197C106.326 5.6458 103.998 7.97363 103.998 10.8453V15.4807L82.1597 1.65538C80.911 0.869261 79.4654 0.452148 77.9898 0.452148C76.5142 0.452148 75.0686 0.869261 73.8199 1.65538L2.46944 46.8545C0.0792444 48.3444 -0.706109 51.4571 0.691102 53.9024L4.92868 61.343C5.28312 61.9651 5.76087 62.5083 6.33265 62.9393C6.90443 63.3702 7.55818 63.6799 8.25385 63.8492C8.65628 63.9475 9.06923 63.9973 9.48347 63.9973C10.498 63.9984 11.4911 63.7058 12.3431 63.155L15.6059 61.0517V146.033C15.6059 151.776 20.2618 156.432 26.0049 156.432H129.995C135.739 156.432 140.394 151.776 140.394 146.033V61.052L143.649 63.1319C144.248 63.523 144.921 63.7873 145.627 63.9084C146.332 64.0295 147.054 64.0049 147.75 63.8361C148.445 63.6673 149.099 63.3579 149.67 62.9269C150.241 62.4959 150.718 61.9525 151.071 61.3302L155.309 53.8922C156.705 51.4471 155.921 48.3359 153.534 46.8443L129.995 31.9477V10.8453C129.995 7.97388 127.667 5.6458 124.796 5.6458ZM109.197 10.8453H124.796V28.6536L109.197 18.7745V10.8453ZM135.195 146.033C135.195 148.904 132.867 151.232 129.995 151.232H26.0049C23.1332 151.232 20.8054 148.904 20.8054 146.033V57.706L77.9999 20.922L135.195 57.706V146.033ZM150.793 51.3313L146.478 58.7796L80.8105 16.5494C79.9719 16.0103 78.9959 15.7236 77.9989 15.7236C77.0019 15.7236 76.0259 16.0103 75.1873 16.5494L9.44703 58.7719L5.25103 51.2482L76.6117 6.049C77.0272 5.78658 77.5085 5.64729 77.9999 5.64729C78.4913 5.64729 78.9727 5.78658 79.3882 6.049L150.793 51.329V51.3313H150.793Z" fill="black"/>
</g>
<defs>
<clipPath id="clip0_13_27">
<rect width="156" height="156" fill="white" transform="translate(0 0.452148)"/>
</clipPath>
</defs>
</svg>
