<svg width="156" height="157" viewBox="0 0 156 157" fill="none" xmlns="http://www.w3.org/2000/svg">
<path fill-rule="evenodd" clip-rule="evenodd" d="M23.0789 87.0632C27.9657 87.0632 31.9273 83.1067 31.9273 78.2261C31.9273 73.3456 27.9657 69.3891 23.0789 69.3891C18.192 69.3891 14.2305 73.3456 14.2305 78.2261C14.2305 83.1067 18.192 87.0632 23.0789 87.0632ZM23.0789 92.2435C30.8304 92.2435 37.1143 85.9677 37.1143 78.2261C37.1143 70.4845 30.8304 64.2087 23.0789 64.2087C15.3273 64.2087 9.04346 70.4845 9.04346 78.2261C9.04346 85.9677 15.3273 92.2435 23.0789 92.2435ZM78 87.0632C82.8868 87.0632 86.8484 83.1067 86.8484 78.2261C86.8484 73.3456 82.8868 69.3891 78 69.3891C73.1131 69.3891 69.1516 73.3456 69.1516 78.2261C69.1516 83.1067 73.1131 87.0632 78 87.0632ZM78 92.2435C85.7515 92.2435 92.0354 85.9677 92.0354 78.2261C92.0354 70.4845 85.7515 64.2087 78 64.2087C70.2484 64.2087 63.9646 70.4845 63.9646 78.2261C63.9646 85.9677 70.2484 92.2435 78 92.2435ZM132.921 87.0632C137.808 87.0632 141.769 83.1067 141.769 78.2261C141.769 73.3456 137.808 69.3891 132.921 69.3891C128.034 69.3891 124.073 73.3456 124.073 78.2261C124.073 83.1067 128.034 87.0632 132.921 87.0632ZM132.921 92.2435C140.673 92.2435 146.956 85.9677 146.956 78.2261C146.956 70.4845 140.673 64.2087 132.921 64.2087C125.17 64.2087 118.886 70.4845 118.886 78.2261C118.886 85.9677 125.17 92.2435 132.921 92.2435Z" fill="black"/>
</svg>
