<svg width="156" height="156" viewBox="0 0 156 156" fill="none" xmlns="http://www.w3.org/2000/svg">
<g clip-path="url(#clip0_13_7)">
<path d="M153.4 106.744V77.6072C153.401 77.238 153.321 76.873 153.166 76.5375L142.246 52.6634C141.418 50.8583 140.085 49.3277 138.406 48.2536C136.727 47.1796 134.774 46.6074 132.777 46.605H111.8V25.9374C111.8 20.2302 107.144 15.6035 101.4 15.6035H13.0001C7.25644 15.6035 2.6002 20.2302 2.6002 25.9374V106.744C1.81222 107.194 1.15715 107.841 0.700758 108.622C0.244363 109.403 0.00269182 110.289 0 111.192L0 118.943C0 121.797 2.32812 124.11 5.2001 124.11H13.2082C14.4934 133.002 22.1596 139.604 31.2003 139.604C40.241 139.604 47.9072 133.002 49.1924 124.11H109.408C110.694 133.002 118.36 139.604 127.401 139.604C136.441 139.604 144.107 133.002 145.393 124.11H150.801C153.672 124.11 156.001 121.797 156.001 118.943V111.192C155.998 110.289 155.756 109.403 155.299 108.622C154.843 107.841 154.188 107.194 153.4 106.744ZM137.514 54.8002L146.762 75.0238H127.4C126.71 75.0238 126.049 74.7516 125.561 74.2671C125.074 73.7826 124.8 73.1255 124.8 72.4404V51.7724H132.777C133.775 51.7738 134.752 52.0599 135.592 52.5966C136.432 53.1333 137.099 53.8981 137.514 54.8002ZM119.6 51.7724V72.4404C119.6 76.7207 123.092 80.1908 127.4 80.1908H148.2V106.026H136.726C133.913 104.335 130.688 103.442 127.4 103.442C124.112 103.442 120.887 104.335 118.074 106.026H111.8V51.7724H119.6ZM46.1135 111.192H112.486C110.862 113.5 109.808 116.155 109.408 118.943H49.1921C48.7924 116.155 47.7378 113.5 46.1135 111.192ZM13.0001 20.7706H101.4C104.272 20.7706 106.6 23.0839 106.6 25.9377V106.026H40.5262C37.7127 104.335 34.4877 103.442 31.2 103.442C27.9123 103.442 24.6873 104.335 21.8738 106.026H7.8V25.9374C7.8 23.0839 10.1281 20.7706 13.0001 20.7706ZM5.2001 111.192H16.2865C14.6622 113.5 13.6077 116.155 13.2082 118.943H5.2001V111.192ZM31.2 134.444C24.0203 134.444 18.1999 128.66 18.1999 121.526C18.1999 114.392 24.0203 108.609 31.2 108.609C38.3797 108.609 44.2001 114.392 44.2001 121.526C44.1913 128.657 38.376 134.435 31.2 134.444ZM127.4 134.444C120.22 134.444 114.4 128.66 114.4 121.526C114.4 114.392 120.22 108.609 127.4 108.609C134.58 108.609 140.4 114.392 140.4 121.526C140.391 128.657 134.576 134.435 127.4 134.444ZM150.8 118.943H145.392C144.992 116.155 143.938 113.5 142.314 111.192H150.8L150.8 118.943Z" fill="black"/>
<path d="M31.2 114.404C26.8924 114.404 23.4 117.896 23.4 122.204C23.4 126.511 26.8924 130.004 31.2 130.004C35.5077 130.004 39 126.511 39 122.204C39 117.896 35.5077 114.404 31.2 114.404ZM31.2 124.804C30.8586 124.804 30.5205 124.736 30.2051 124.606C29.8897 124.475 29.603 124.284 29.3616 124.042C29.1202 123.801 28.9287 123.514 28.798 123.199C28.6674 122.883 28.6001 122.545 28.6001 122.204C28.6001 121.862 28.6674 121.524 28.798 121.209C28.9287 120.893 29.1202 120.607 29.3616 120.365C29.603 120.124 29.8897 119.932 30.2051 119.802C30.5205 119.671 30.8586 119.604 31.2 119.604C31.8896 119.604 32.5509 119.878 33.0384 120.365C33.526 120.853 33.7999 121.514 33.7999 122.204C33.7999 122.893 33.526 123.555 33.0384 124.042C32.5509 124.53 31.8896 124.804 31.2 124.804ZM127.4 114.404C123.092 114.404 119.6 117.896 119.6 122.204C119.6 126.511 123.092 130.004 127.4 130.004C131.708 130.004 135.2 126.511 135.2 122.204C135.2 117.896 131.708 114.404 127.4 114.404ZM127.4 124.804C125.964 124.804 124.8 123.64 124.8 122.204C124.8 120.768 125.964 119.604 127.4 119.604C128.836 119.604 130 120.768 130 122.204C130 123.64 128.836 124.804 127.4 124.804Z" fill="black"/>
</g>
<defs>
<clipPath id="clip0_13_7">
<rect width="156" height="156" fill="white"/>
</clipPath>
</defs>
</svg>
