<svg width="156" height="156" viewBox="0 0 156 156" fill="none" xmlns="http://www.w3.org/2000/svg">
<g clip-path="url(#clip0_13_2)">
<path fill-rule="evenodd" clip-rule="evenodd" d="M41.5994 20.8008H88.3988C89.0884 20.8008 89.7496 20.5269 90.2372 20.0393C90.7248 19.5518 90.9987 18.8905 90.9987 18.2009C90.9987 17.5114 90.7248 16.8501 90.2372 16.3626C89.7496 15.875 89.0884 15.6011 88.3988 15.6011H41.5994C40.9099 15.6011 40.2486 15.875 39.761 16.3626C39.2734 16.8501 38.9995 17.5114 38.9995 18.2009C38.9995 18.8905 39.2734 19.5518 39.761 20.0393C40.2486 20.5269 40.9099 20.8008 41.5994 20.8008ZM41.5994 36.4006H88.3988C89.0884 36.4006 89.7496 36.1267 90.2372 35.6391C90.7248 35.1516 90.9987 34.4903 90.9987 33.8008C90.9987 33.1112 90.7248 32.4499 90.2372 31.9624C89.7496 31.4748 89.0884 31.2009 88.3988 31.2009H41.5994C40.9099 31.2009 40.2486 31.4748 39.761 31.9624C39.2734 32.4499 38.9995 33.1112 38.9995 33.8008C38.9995 34.4903 39.2734 35.1516 39.761 35.6391C40.2486 36.1267 40.9099 36.4006 41.5994 36.4006ZM41.5994 52.0004H88.3988C89.0884 52.0004 89.7496 51.7265 90.2372 51.239C90.7248 50.7514 90.9987 50.0901 90.9987 49.4006C90.9987 48.711 90.7248 48.0498 90.2372 47.5622C89.7496 47.0746 89.0884 46.8007 88.3988 46.8007H41.5994C40.9099 46.8007 40.2486 47.0746 39.761 47.5622C39.2734 48.0498 38.9995 48.711 38.9995 49.4006C38.9995 50.0901 39.2734 50.7514 39.761 51.239C40.2486 51.7265 40.9099 52.0004 41.5994 52.0004ZM41.5994 67.6003H88.3988C89.0884 67.6003 89.7496 67.3263 90.2372 66.8388C90.7248 66.3512 90.9987 65.6899 90.9987 65.0004C90.9987 64.3109 90.7248 63.6496 90.2372 63.162C89.7496 62.6744 89.0884 62.4005 88.3988 62.4005H41.5994C40.9099 62.4005 40.2486 62.6744 39.761 63.162C39.2734 63.6496 38.9995 64.3109 38.9995 65.0004C38.9995 65.6899 39.2734 66.3512 39.761 66.8388C40.2486 67.3263 40.9099 67.6003 41.5994 67.6003ZM41.5994 83.2001H72.799C73.4885 83.2001 74.1498 82.9262 74.6374 82.4386C75.125 81.951 75.3989 81.2897 75.3989 80.6002C75.3989 79.9107 75.125 79.2494 74.6374 78.7618C74.1498 78.2743 73.4885 78.0003 72.799 78.0003H41.5994C40.9099 78.0003 40.2486 78.2743 39.761 78.7618C39.2734 79.2494 38.9995 79.9107 38.9995 80.6002C38.9995 81.2897 39.2734 81.951 39.761 82.4386C40.2486 82.9262 40.9099 83.2001 41.5994 83.2001ZM62.3992 96.2C62.3992 95.5105 62.1253 94.8492 61.6378 94.3616C61.1502 93.8741 60.4889 93.6002 59.7994 93.6002H41.5997C40.9102 93.6002 40.2489 93.8741 39.7613 94.3616C39.2737 94.8492 38.9998 95.5105 38.9998 96.2C38.9998 96.8895 39.2737 97.5508 39.7613 98.0384C40.2489 98.526 40.9102 98.7999 41.5997 98.7999H59.7994C60.4889 98.7999 61.1502 98.526 61.6378 98.0384C62.1253 97.5508 62.3992 96.8895 62.3992 96.2Z" fill="black"/>
<path d="M122.81 98.4662L123.759 97.5198C124.182 97.6356 124.619 97.6984 125.059 97.7063C126.437 97.7067 127.76 97.1612 128.735 96.1897L137.305 87.6528C137.788 87.1713 138.171 86.5996 138.432 85.9704C138.694 85.3413 138.828 84.6669 138.828 83.9858C138.828 83.3048 138.694 82.6304 138.432 82.0013C138.171 81.3721 137.788 80.8004 137.305 80.3189L115.465 58.5603C113.434 56.5361 110.143 56.5361 108.112 58.5603L103.999 62.6693V15.556C103.99 6.96888 97.0111 0.00959712 88.3992 0.00109055H15.6595C13.6059 -0.00674836 11.571 0.389805 9.6714 1.168C7.77185 1.9462 6.04508 3.09072 4.59017 4.5359C3.13527 5.98108 1.98085 7.69849 1.19315 9.58958C0.405457 11.4807 -1.50472e-05 13.5082 4.18811e-10 15.556L4.18809e-10 69.998C4.18809e-10 72.8617 2.32809 75.1831 5.20004 75.1831H25.9999V127.033C26.0328 135.62 33.0137 142.569 41.6256 142.588H62.3993V150.365C62.3993 153.229 64.7274 155.55 67.5993 155.55H103.999C106.871 155.55 109.199 153.229 109.199 150.365V142.588H114.399C122.752 142.577 129.614 136.007 129.965 127.686L142.57 140.254C143.303 140.993 144.175 141.58 145.137 141.981C146.099 142.381 147.13 142.588 148.173 142.588C149.725 142.586 151.242 142.124 152.531 141.261C153.82 140.399 154.823 139.174 155.413 137.742C156.002 136.31 156.152 134.735 155.843 133.218C155.534 131.701 154.78 130.31 153.677 129.221L122.81 98.4662ZM86.579 109.663L86.5348 109.619L75.3992 98.5154L83.9584 89.9836H83.9767L105.785 111.737L97.2393 120.292L86.579 109.663ZM107.639 106.249L89.4753 88.1456L101.399 76.2616L119.562 94.3675L107.639 106.249ZM111.799 62.2206L133.638 83.9974L125.058 92.524L103.278 70.8016C103.278 70.8016 103.26 70.7706 103.247 70.7575L103.266 70.7317L111.799 62.2206ZM25.9996 69.998H5.20004V15.556C5.20386 14.1129 5.50863 12.6864 6.09499 11.3671C6.68136 10.0478 7.5365 8.86454 8.6061 7.89245C10.5064 6.15459 12.9902 5.18902 15.5687 5.18584H15.8235C16.0833 5.18584 16.3563 5.18584 16.6269 5.22473C22.074 5.94445 26.1096 10.63 25.9999 16.108L25.9996 69.998ZM31.1996 127.033V16.1083C31.2008 12.0825 29.7207 8.19625 27.0398 5.18615H88.3992C94.1428 5.18615 98.7989 9.82891 98.7989 15.556V68.0898C98.4415 68.6842 98.2072 69.3439 98.1098 70.0301C98.0125 70.7163 98.0541 71.415 98.2322 72.0849L85.2792 84.9927C84.4023 84.7566 83.4786 84.7544 82.6007 84.9865C81.7227 85.2185 80.9214 85.6766 80.2769 86.3148L71.7153 94.8493C69.6852 96.8742 69.6852 100.156 71.7153 102.181L78.4491 108.885H57.1995C54.3276 108.885 51.9995 111.206 51.9995 114.07V126.488C52.1006 131.988 48.0316 136.681 42.5589 137.376C42.2399 137.405 41.9195 137.414 41.5994 137.402C35.8653 137.38 31.2225 132.75 31.1996 127.033ZM67.5993 150.365V139.995C67.5993 139.308 67.8732 138.648 68.3608 138.162C68.8484 137.676 69.5096 137.403 70.1992 137.403H101.399C102.088 137.403 102.75 137.676 103.237 138.162C103.725 138.648 103.999 139.308 103.999 139.995V150.365H67.5993ZM124.799 127.033C124.799 132.76 120.142 137.403 114.399 137.403H108.72C108.185 135.891 107.194 134.582 105.883 133.654C104.572 132.726 103.006 132.224 101.399 132.217H70.1992C68.5917 132.224 67.0255 132.726 65.715 133.654C64.4044 134.582 63.4134 135.891 62.8776 137.403H53.0394C55.7185 134.395 57.1985 130.511 57.1992 126.488V114.07H83.6488L93.5468 123.942C95.5803 125.959 98.866 125.959 100.899 123.942L109.459 115.411C110.106 114.776 110.572 113.98 110.807 113.106C111.042 112.232 111.038 111.311 110.795 110.438L111.728 109.508L124.798 122.535V127.033H124.799ZM149.982 136.625C149.482 137.105 148.814 137.371 148.12 137.368C147.426 137.364 146.761 137.09 146.267 136.604L129.239 119.629L115.415 105.847L119.131 102.145L150.018 132.9C150.27 133.142 150.469 133.432 150.605 133.754C150.74 134.075 150.809 134.421 150.806 134.77C150.804 135.118 150.73 135.463 150.589 135.782C150.449 136.102 150.245 136.389 149.99 136.628L149.982 136.625Z" fill="black"/>
</g>
<defs>
<clipPath id="clip0_13_2">
<rect width="156" height="156" fill="white"/>
</clipPath>
</defs>
</svg>
